<svg width="291" height="62" viewBox="0 0 291 62" fill="none" xmlns="http://www.w3.org/2000/svg">
<path d="M33.856 48.832L40.64 13.056C41.1093 10.752 41.7493 8.78933 42.56 7.168C43.3706 5.50399 44.5226 4.24533 46.016 3.39199C47.5093 2.49599 49.472 2.04799 51.904 2.04799C53.6533 2.04799 55.168 2.38933 56.448 3.07199C57.7706 3.71199 58.4746 4.62933 58.56 5.82399C57.5786 6.93333 56.832 8.256 56.32 9.792C55.808 11.328 55.36 13.2053 54.976 15.424C54.6346 17.6427 54.144 20.3733 53.504 23.616L48.832 47.424L33.856 48.832ZM15.872 51.456C14.0373 51.456 12.4373 51.1147 11.072 50.432C9.70662 49.7493 8.98129 48.8533 8.89596 47.744C9.62129 47.4453 10.1546 47.04 10.496 46.528C10.88 45.9733 11.1786 45.2267 11.392 44.288C11.6053 43.3493 11.8613 42.0907 12.16 40.512L16 20.352C16.5546 17.4507 17.664 15.0613 19.328 13.184C20.992 11.264 23.04 9.74933 25.472 8.64C27.9466 7.488 30.6773 6.61333 33.664 6.016L27.008 39.872C26.5386 42.3467 25.92 44.4587 25.152 46.208C24.384 47.9147 23.2746 49.216 21.824 50.112C20.416 51.008 18.432 51.456 15.872 51.456ZM9.47196 25.664C7.33862 25.664 5.56796 25.216 4.15996 24.32C2.75196 23.424 1.70662 22.2507 1.02396 20.8C0.341289 19.3493 -4.44651e-05 17.8347 -4.44651e-05 16.256C-4.44651e-05 14.2507 0.511956 12.2453 1.53596 10.24C2.60262 8.23466 4.13862 6.57066 6.14396 5.24799C8.14929 3.88266 10.624 3.19999 13.568 3.19999C15.36 3.19999 16.9813 3.34933 18.432 3.64799C19.9253 3.94666 21.376 4.28799 22.784 4.67199C24.2346 5.01333 25.8133 5.33333 27.52 5.632C29.2693 5.888 31.3173 6.016 33.664 6.016L23.04 9.98399L22.848 9.27999C21.952 8.81066 21.1413 8.512 20.416 8.384C19.7333 8.25599 19.1786 8.19199 18.752 8.19199C17.0026 8.19199 15.5733 8.89599 14.464 10.304C13.3973 11.6693 12.864 13.5467 12.864 15.936C12.864 17.1733 12.9706 18.3467 13.184 19.456C13.3973 20.5653 13.8453 21.888 14.528 23.424C13.8453 24.2347 13.0133 24.8107 12.032 25.152C11.0506 25.4933 10.1973 25.664 9.47196 25.664ZM26.816 30.08L27.968 24.832H40.96L39.936 30.08H26.816ZM63.4986 49.536C61.0239 49.536 58.9759 49.024 57.3546 48C55.7759 46.9333 54.6026 45.4613 53.8346 43.584C53.0666 41.664 52.6826 39.4027 52.6826 36.8C52.6826 33.5573 53.1946 30.5707 54.2186 27.84C55.2426 25.1093 56.6719 22.7413 58.5066 20.736C60.3839 18.688 62.5386 17.1093 64.9706 16C67.4026 14.8907 70.0266 14.336 72.8426 14.336C75.1039 14.336 77.3866 14.7413 79.6906 15.552L90.6346 14.208L86.1546 38.016C86.1119 38.3573 86.0479 38.784 85.9626 39.296C85.8772 39.808 85.8346 40.2773 85.8346 40.704C85.8346 41.5573 86.0906 42.368 86.6026 43.136C87.1146 43.8613 87.9679 44.2667 89.1626 44.352C88.7786 45.5467 88.0959 46.528 87.1146 47.296C86.1332 48.064 85.0239 48.6187 83.7866 48.96C82.5492 49.344 81.3332 49.536 80.1386 49.536C78.6879 49.536 77.3012 49.2373 75.9786 48.64C74.6986 48.0427 73.7812 47.1253 73.2266 45.888C72.1172 46.9973 70.7519 47.872 69.1306 48.512C67.5092 49.1947 65.6319 49.536 63.4986 49.536ZM67.7866 45.376C68.8106 45.376 69.6426 44.9707 70.2826 44.16C70.9652 43.3493 71.4772 42.368 71.8186 41.216C72.2026 40.064 72.4799 38.976 72.6506 37.952L75.9146 19.136C75.4026 18.7947 74.9119 18.56 74.4426 18.432C73.9732 18.2613 73.5466 18.176 73.1626 18.176C71.9679 18.176 70.9439 18.752 70.0906 19.904C69.2372 21.0133 68.5119 22.4853 67.9146 24.32C67.3599 26.1547 66.9119 28.1173 66.5706 30.208C66.2719 32.2987 66.0586 34.3253 65.9306 36.288C65.8026 38.2507 65.7386 39.9147 65.7386 41.28C65.7386 42.2187 65.8452 43.136 66.0586 44.032C66.3146 44.928 66.8906 45.376 67.7866 45.376ZM97.2002 49.536C94.9388 49.536 93.0402 48.96 91.5042 47.808C89.9682 46.6133 89.2002 44.8 89.2002 42.368C89.2002 41.2587 89.3282 39.8293 89.5842 38.08C89.8402 36.288 90.1602 34.368 90.5442 32.32C90.9708 30.272 91.3975 28.2453 91.8242 26.24C92.2935 24.192 92.7202 22.336 93.1042 20.672C93.4882 18.9653 93.7868 17.6 94.0002 16.576C94.2562 15.552 94.3628 15.04 94.3202 15.04C94.7895 12.5653 95.1095 10.624 95.2802 9.216C95.4935 7.76533 95.6002 6.52799 95.6002 5.50399C95.6002 4.77866 95.5575 4.11733 95.4722 3.51999C95.3868 2.92266 95.2802 2.38933 95.1522 1.91999C96.2615 1.36533 97.5202 0.917327 98.9282 0.575993C100.336 0.191995 101.701 -3.8147e-06 103.024 -3.8147e-06C104.731 -3.8147e-06 106.224 0.405329 107.504 1.216C108.827 2.02666 109.488 3.47733 109.488 5.56799C109.488 6.12266 109.445 6.82666 109.36 7.68C109.275 8.49066 109.147 9.45066 108.976 10.56C108.848 11.6693 108.656 12.9067 108.4 14.272C108.144 15.6373 107.845 17.1307 107.504 18.752C106.693 22.6773 106.011 25.92 105.456 28.48C104.944 30.9973 104.517 33.024 104.176 34.56C103.877 36.096 103.643 37.2693 103.472 38.08C103.344 38.848 103.259 39.424 103.216 39.808C103.173 40.1493 103.152 40.448 103.152 40.704C103.152 41.5573 103.408 42.368 103.92 43.136C104.432 43.8613 105.264 44.2667 106.416 44.352C106.075 45.5467 105.413 46.528 104.432 47.296C103.451 48.064 102.32 48.6187 101.04 48.96C99.8028 49.344 98.5228 49.536 97.2002 49.536ZM114.462 49.536C112.2 49.536 110.302 48.96 108.766 47.808C107.23 46.6133 106.462 44.8 106.462 42.368C106.462 41.2587 106.59 39.8293 106.846 38.08C107.102 36.288 107.422 34.368 107.806 32.32C108.232 30.272 108.659 28.2453 109.086 26.24C109.555 24.192 109.982 22.336 110.366 20.672C110.75 18.9653 111.048 17.6 111.262 16.576C111.518 15.552 111.624 15.04 111.582 15.04C112.051 12.5653 112.371 10.624 112.542 9.216C112.755 7.76533 112.862 6.52799 112.862 5.50399C112.862 4.77866 112.819 4.11733 112.734 3.51999C112.648 2.92266 112.542 2.38933 112.414 1.91999C113.523 1.36533 114.782 0.917327 116.19 0.575993C117.598 0.191995 118.963 -3.8147e-06 120.286 -3.8147e-06C121.992 -3.8147e-06 123.486 0.405329 124.766 1.216C126.088 2.02666 126.75 3.47733 126.75 5.56799C126.75 6.12266 126.707 6.82666 126.622 7.68C126.536 8.49066 126.408 9.45066 126.238 10.56C126.11 11.6693 125.918 12.9067 125.662 14.272C125.406 15.6373 125.107 17.1307 124.766 18.752C123.955 22.6773 123.272 25.92 122.718 28.48C122.206 30.9973 121.779 33.024 121.438 34.56C121.139 36.096 120.904 37.2693 120.734 38.08C120.606 38.848 120.52 39.424 120.478 39.808C120.435 40.1493 120.414 40.448 120.414 40.704C120.414 41.5573 120.67 42.368 121.182 43.136C121.694 43.8613 122.526 44.2667 123.678 44.352C123.336 45.5467 122.675 46.528 121.694 47.296C120.712 48.064 119.582 48.6187 118.302 48.96C117.064 49.344 115.784 49.536 114.462 49.536ZM137.803 49.536C135.115 49.536 132.705 49.0667 130.571 48.128C128.438 47.1893 126.753 45.7173 125.515 43.712C124.278 41.7067 123.659 39.1253 123.659 35.968C123.659 33.1947 124.065 30.528 124.875 27.968C125.729 25.3653 127.03 23.04 128.779 20.992C130.529 18.944 132.747 17.3227 135.435 16.128C138.166 14.9333 141.409 14.336 145.163 14.336C147.083 14.336 148.897 14.5493 150.603 14.976C152.353 15.4027 153.782 16.2133 154.891 17.408C156.001 18.6027 156.555 20.3307 156.555 22.592C156.555 24.5547 156.001 26.2827 154.891 27.776C153.782 29.2693 152.033 30.4853 149.643 31.424C147.254 32.32 144.139 32.896 140.299 33.152C139.787 33.1947 139.254 33.2373 138.699 33.28C138.187 33.28 137.633 33.28 137.035 33.28C136.993 33.664 136.95 34.0907 136.907 34.56C136.865 34.9867 136.843 35.3707 136.843 35.712C136.843 37.3333 137.227 38.592 137.995 39.488C138.806 40.3413 140.129 40.768 141.963 40.768C143.499 40.768 145.142 40.448 146.891 39.808C148.641 39.168 149.921 38.2293 150.731 36.992C151.329 37.4187 151.734 37.888 151.947 38.4C152.203 38.8693 152.331 39.4667 152.331 40.192C152.331 42.1973 151.606 43.904 150.155 45.312C148.747 46.72 146.934 47.7653 144.715 48.448C142.497 49.1733 140.193 49.536 137.803 49.536ZM137.419 30.592C138.913 30.592 140.193 30.336 141.259 29.824C142.369 29.312 143.265 28.6293 143.947 27.776C144.673 26.88 145.185 25.856 145.483 24.704C145.825 23.5093 145.995 22.2507 145.995 20.928C145.953 19.9467 145.782 19.136 145.483 18.496C145.227 17.856 144.673 17.536 143.819 17.536C143.222 17.536 142.625 17.7493 142.027 18.176C141.43 18.6027 140.854 19.3067 140.299 20.288C139.745 21.2693 139.211 22.6133 138.699 24.32C138.23 25.984 137.803 28.0747 137.419 30.592ZM162.564 61.056C160.601 61.056 159.001 60.5653 157.764 59.584C156.569 58.6027 155.972 57.1307 155.972 55.168C155.972 53.8453 156.271 52.6293 156.868 51.52C157.465 50.4533 158.276 49.4507 159.3 48.512C160.324 47.616 161.455 46.784 162.692 46.016L156.804 46.336C156.719 42.8373 156.612 39.7867 156.484 37.184C156.356 34.5813 156.207 32.192 156.036 30.016C155.865 27.84 155.652 25.7067 155.396 23.616C155.183 21.6107 154.863 20.096 154.436 19.072C154.052 18.048 153.497 17.3013 152.772 16.832C154.052 15.8507 155.332 15.1893 156.612 14.848C157.935 14.5067 159.257 14.336 160.58 14.336C162.713 14.336 164.335 14.6987 165.444 15.424C166.596 16.1067 167.407 17.1307 167.876 18.496C168.388 19.8613 168.729 21.568 168.9 23.616C168.943 24.0853 168.964 24.8533 168.964 25.92C168.964 26.944 168.964 27.9467 168.964 28.928C169.007 29.9093 169.028 30.5707 169.028 30.912L168.964 40.448C170.329 38.656 171.545 36.672 172.612 34.496C173.679 32.2773 174.511 29.9733 175.108 27.584C175.748 25.1947 176.068 22.8267 176.068 20.48C176.068 19.968 176.047 19.392 176.004 18.752C175.961 18.112 175.833 17.472 175.62 16.832C176.303 16.1067 177.156 15.5093 178.18 15.04C179.247 14.5707 180.463 14.336 181.828 14.336C182.852 14.336 183.833 14.5067 184.772 14.848C185.711 15.1467 186.479 15.7013 187.076 16.512C187.673 17.28 187.972 18.3893 187.972 19.84C187.972 21.2907 187.609 22.8907 186.884 24.64C186.159 26.3467 185.22 28.096 184.068 29.888C182.916 31.6373 181.679 33.344 180.356 35.008C179.033 36.672 177.753 38.1653 176.516 39.488C175.321 40.8107 174.319 41.8987 173.508 42.752C172.057 44.16 170.777 45.568 169.668 46.976C168.601 48.3413 168.068 50.048 168.068 52.096C168.068 53.2053 168.367 54.272 168.964 55.296C169.604 56.3627 170.436 57.216 171.46 57.856C170.265 58.9653 168.879 59.776 167.3 60.288C165.721 60.8 164.143 61.056 162.564 61.056ZM204.761 49.536C203.566 49.536 202.585 49.408 201.817 49.152C201.091 48.896 200.089 48.576 198.809 48.192L192.537 47.68L198.681 15.616L204.825 14.848L204.057 20.608C205.209 18.7307 206.638 17.216 208.345 16.064C210.094 14.912 212.099 14.336 214.361 14.336C216.409 14.336 218.073 14.8693 219.353 15.936C220.633 16.96 221.571 18.3893 222.169 20.224C222.766 22.016 223.065 24.0853 223.065 26.432C223.065 29.248 222.681 32.0213 221.913 34.752C221.187 37.4827 220.078 39.9573 218.585 42.176C217.091 44.3947 215.193 46.1867 212.889 47.552C210.585 48.8747 207.875 49.536 204.761 49.536ZM195.481 61.056C194.371 61.056 193.347 60.7147 192.409 60.032C191.513 59.3493 191.065 58.1333 191.065 56.384C191.065 56.0427 191.129 55.4453 191.257 54.592C191.385 53.7813 191.534 52.8213 191.705 51.712C191.918 50.6453 192.131 49.5147 192.345 48.32C192.601 47.1253 192.835 46.0373 193.049 45.056L200.089 45.184C199.705 47.2747 199.363 49.4507 199.065 51.712C198.766 54.016 198.617 56 198.617 57.664C198.617 58.0907 198.638 58.5173 198.681 58.944C198.723 59.3707 198.787 59.7547 198.873 60.096C198.446 60.352 197.934 60.5653 197.337 60.736C196.739 60.9493 196.121 61.056 195.481 61.056ZM205.849 45.696C207.129 45.696 208.281 45.312 209.305 44.544C210.371 43.776 211.289 42.7307 212.057 41.408C212.867 40.0853 213.529 38.5493 214.041 36.8C214.553 35.0507 214.937 33.1947 215.193 31.232C215.491 29.2267 215.641 27.2213 215.641 25.216C215.641 23.424 215.342 21.9947 214.745 20.928C214.147 19.8187 213.081 19.264 211.545 19.264C210.009 19.264 208.686 19.712 207.577 20.608C206.51 21.504 205.635 22.656 204.953 24.064C204.27 25.472 203.779 26.944 203.481 28.48L200.665 43.712C201.433 44.3947 202.265 44.9067 203.161 45.248C204.099 45.5467 204.995 45.696 205.849 45.696ZM228.022 49.536C226.657 49.536 225.59 49.152 224.822 48.384C224.054 47.616 223.67 46.5493 223.67 45.184C223.67 44.672 223.713 44.0533 223.798 43.328C223.884 42.6027 223.99 41.856 224.118 41.088C224.246 40.2773 224.374 39.5307 224.502 38.848C224.673 38.1227 224.801 37.504 224.886 36.992L229.238 15.616L236.534 14.848L231.158 41.6C231.116 41.9413 231.052 42.3893 230.966 42.944C230.881 43.456 230.838 43.904 230.838 44.288C230.838 44.928 230.988 45.44 231.286 45.824C231.628 46.208 232.118 46.4213 232.758 46.464C232.502 47.5307 231.905 48.2987 230.966 48.768C230.07 49.28 229.089 49.536 228.022 49.536ZM234.486 9.98399C233.121 9.98399 231.99 9.66399 231.094 9.02399C230.198 8.34133 229.75 7.33866 229.75 6.016C229.75 4.608 230.22 3.584 231.158 2.944C232.097 2.26133 233.249 1.91999 234.614 1.91999C235.98 1.91999 237.11 2.26133 238.006 2.944C238.902 3.584 239.35 4.56533 239.35 5.88799C239.35 7.296 238.881 8.34133 237.942 9.02399C237.004 9.66399 235.852 9.98399 234.486 9.98399ZM247.88 49.536C244.168 49.536 241.395 48.4907 239.56 46.4C237.726 44.2667 236.808 41.088 236.808 36.864C236.808 34.0907 237.192 31.3813 237.96 28.736C238.728 26.048 239.859 23.6373 241.352 21.504C242.888 19.328 244.766 17.6 246.984 16.32C249.246 14.9973 251.891 14.336 254.92 14.336C256.67 14.336 258.206 14.592 259.528 15.104C260.894 15.5733 261.96 16.2987 262.728 17.28C263.496 18.2613 263.88 19.52 263.88 21.056C263.88 22.976 263.326 24.384 262.216 25.28C261.107 26.176 259.87 26.624 258.504 26.624C258.12 26.624 257.651 26.5813 257.096 26.496C256.584 26.368 256.179 26.112 255.88 25.728C256.094 25.088 256.286 24.3627 256.456 23.552C256.67 22.6987 256.776 21.9733 256.776 21.376C256.776 20.3093 256.52 19.4987 256.008 18.944C255.539 18.3893 254.792 18.112 253.768 18.112C252.488 18.112 251.336 18.5387 250.312 19.392C249.288 20.2453 248.392 21.376 247.624 22.784C246.899 24.1493 246.28 25.664 245.768 27.328C245.256 28.992 244.872 30.6347 244.616 32.256C244.36 33.8773 244.232 35.328 244.232 36.608C244.232 38.6987 244.638 40.4907 245.448 41.984C246.302 43.4347 247.838 44.16 250.056 44.16C252.019 44.16 253.662 43.584 254.984 42.432C256.307 41.28 257.246 39.808 257.8 38.016C258.611 38.272 259.187 38.6987 259.528 39.296C259.87 39.8507 260.04 40.5333 260.04 41.344C260.04 42.8373 259.507 44.2027 258.44 45.44C257.416 46.6773 255.987 47.6587 254.152 48.384C252.318 49.152 250.227 49.536 247.88 49.536ZM260.723 49.024L266.355 20.416L272.371 20.864C273.48 18.6027 275.016 16.96 276.979 15.936C278.942 14.8693 280.968 14.336 283.059 14.336C285.662 14.336 287.56 15.0187 288.755 16.384C289.992 17.7493 290.611 19.5413 290.611 21.76C290.611 24.1067 290.035 26.0907 288.883 27.712C287.731 29.3333 286.259 30.656 284.467 31.68C282.718 32.6613 280.926 33.472 279.091 34.112L272.819 32.832C274.526 32.4053 276.19 31.7867 277.811 30.976C279.432 30.1653 280.776 29.12 281.843 27.84C282.91 26.56 283.443 25.0453 283.443 23.296C283.443 20.608 282.142 19.264 279.539 19.264C277.875 19.264 276.51 19.8187 275.443 20.928C274.376 21.9947 273.544 23.4027 272.947 25.152C272.35 26.8587 271.859 28.6293 271.475 30.464L268.019 48.256L260.723 49.024ZM283.251 49.536C282.27 49.536 281.374 49.3227 280.563 48.896C279.752 48.4693 279.006 47.808 278.323 46.912C277.64 46.016 277 44.9067 276.403 43.584C275.806 42.2613 275.208 40.704 274.611 38.912C274.056 37.12 273.459 35.0933 272.819 32.832H279.667L282.931 41.408C283.4 42.4747 284.019 43.4773 284.787 44.416C285.555 45.3547 286.536 45.888 287.731 46.016C287.603 47.04 287.155 47.872 286.387 48.512C285.619 49.1947 284.574 49.536 283.251 49.536ZM272.371 21.632L266.227 20.992C266.568 19.2 266.91 17.2373 267.251 15.104C267.635 12.928 267.955 10.7947 268.211 8.70399C268.51 6.61333 268.659 4.82133 268.659 3.328C268.659 2.81599 268.638 2.36799 268.595 1.98399C268.595 1.59999 268.574 1.23733 268.531 0.895996C268.958 0.597328 269.448 0.383994 270.003 0.255993C270.6 0.0853284 271.219 -3.8147e-06 271.859 -3.8147e-06C272.968 -3.8147e-06 273.992 0.341329 274.931 1.02399C275.912 1.66399 276.382 2.83733 276.339 4.54399C276.339 5.056 276.232 5.86666 276.019 6.97599C275.848 8.04266 275.592 9.25866 275.251 10.624C274.952 11.9893 274.632 13.3973 274.291 14.848C273.95 16.256 273.608 17.5787 273.267 18.816C272.926 20.0107 272.627 20.9493 272.371 21.632Z" fill="url(#paint0_radial_4156_67588)"/>
<defs>
<radialGradient id="paint0_radial_4156_67588" cx="0" cy="0" r="1" gradientUnits="userSpaceOnUse" gradientTransform="translate(180.567 1.52594) rotate(90) scale(68.319 215.632)">
<stop stop-color="#A395E5"/>
<stop offset="1" stop-color="#6248F8"/>
</radialGradient>
</defs>
</svg>
